<mxfile host="app.diagrams.net" modified="2024-01-07T07:31:01.652Z" agent="Mozilla/5.0 (Windows NT 10.0; Win64; x64) AppleWebKit/537.36 (KHTML, like Gecko) Chrome/120.0.0.0 Safari/537.36" etag="Joa8deocFFOELP4jY4dg" version="22.1.17" type="device">
  <diagram name="Page-1" id="uk0SNjwAzEuJgJGUZ7CI">
    <mxGraphModel dx="1313" dy="696" grid="1" gridSize="10" guides="1" tooltips="1" connect="1" arrows="1" fold="1" page="1" pageScale="1" pageWidth="850" pageHeight="1100" math="0" shadow="0">
      <root>
        <mxCell id="0" />
        <mxCell id="1" parent="0" />
        <mxCell id="oEBtpxiMcQ0hFPWkXdTf-11" style="rounded=0;orthogonalLoop=1;jettySize=auto;html=1;" edge="1" parent="1" source="oEBtpxiMcQ0hFPWkXdTf-1" target="oEBtpxiMcQ0hFPWkXdTf-10">
          <mxGeometry relative="1" as="geometry" />
        </mxCell>
        <mxCell id="oEBtpxiMcQ0hFPWkXdTf-13" style="rounded=0;orthogonalLoop=1;jettySize=auto;html=1;entryX=0;entryY=0.5;entryDx=0;entryDy=0;" edge="1" parent="1" source="oEBtpxiMcQ0hFPWkXdTf-1" target="oEBtpxiMcQ0hFPWkXdTf-12">
          <mxGeometry relative="1" as="geometry" />
        </mxCell>
        <mxCell id="oEBtpxiMcQ0hFPWkXdTf-19" style="rounded=0;orthogonalLoop=1;jettySize=auto;html=1;entryX=0;entryY=0.5;entryDx=0;entryDy=0;" edge="1" parent="1" source="oEBtpxiMcQ0hFPWkXdTf-1" target="oEBtpxiMcQ0hFPWkXdTf-18">
          <mxGeometry relative="1" as="geometry" />
        </mxCell>
        <mxCell id="oEBtpxiMcQ0hFPWkXdTf-1" value="Vendor User" style="shape=umlActor;verticalLabelPosition=bottom;verticalAlign=top;html=1;outlineConnect=0;" vertex="1" parent="1">
          <mxGeometry x="110" y="270" width="30" height="60" as="geometry" />
        </mxCell>
        <mxCell id="oEBtpxiMcQ0hFPWkXdTf-8" value="" style="swimlane;startSize=0;" vertex="1" parent="1">
          <mxGeometry x="170" y="40" width="480" height="620" as="geometry" />
        </mxCell>
        <mxCell id="oEBtpxiMcQ0hFPWkXdTf-3" value="SCM Application" style="text;html=1;strokeColor=none;fillColor=none;align=center;verticalAlign=middle;whiteSpace=wrap;rounded=0;" vertex="1" parent="oEBtpxiMcQ0hFPWkXdTf-8">
          <mxGeometry x="187.5" y="10" width="105" height="30" as="geometry" />
        </mxCell>
        <mxCell id="oEBtpxiMcQ0hFPWkXdTf-7" value="Registration" style="ellipse;whiteSpace=wrap;html=1;" vertex="1" parent="oEBtpxiMcQ0hFPWkXdTf-8">
          <mxGeometry x="190" y="90" width="120" height="60" as="geometry" />
        </mxCell>
        <mxCell id="oEBtpxiMcQ0hFPWkXdTf-10" value="Login" style="ellipse;whiteSpace=wrap;html=1;" vertex="1" parent="oEBtpxiMcQ0hFPWkXdTf-8">
          <mxGeometry x="195" y="170" width="120" height="50" as="geometry" />
        </mxCell>
        <mxCell id="oEBtpxiMcQ0hFPWkXdTf-12" value="Manage Vendor data&amp;nbsp;" style="ellipse;whiteSpace=wrap;html=1;" vertex="1" parent="oEBtpxiMcQ0hFPWkXdTf-8">
          <mxGeometry x="90" y="250" width="120" height="50" as="geometry" />
        </mxCell>
        <mxCell id="oEBtpxiMcQ0hFPWkXdTf-14" style="rounded=0;orthogonalLoop=1;jettySize=auto;html=1;entryX=0.232;entryY=1;entryDx=0;entryDy=0;entryPerimeter=0;dashed=1;" edge="1" parent="oEBtpxiMcQ0hFPWkXdTf-8" source="oEBtpxiMcQ0hFPWkXdTf-12" target="oEBtpxiMcQ0hFPWkXdTf-10">
          <mxGeometry relative="1" as="geometry" />
        </mxCell>
        <mxCell id="oEBtpxiMcQ0hFPWkXdTf-15" value="&amp;lt;&amp;lt;Include&amp;gt;&amp;gt;" style="edgeLabel;html=1;align=center;verticalAlign=middle;resizable=0;points=[];" vertex="1" connectable="0" parent="oEBtpxiMcQ0hFPWkXdTf-14">
          <mxGeometry x="0.0978" y="2" relative="1" as="geometry">
            <mxPoint x="-11" y="2" as="offset" />
          </mxGeometry>
        </mxCell>
        <mxCell id="oEBtpxiMcQ0hFPWkXdTf-18" value="Request Tender" style="ellipse;whiteSpace=wrap;html=1;" vertex="1" parent="oEBtpxiMcQ0hFPWkXdTf-8">
          <mxGeometry x="135" y="330" width="120" height="40" as="geometry" />
        </mxCell>
        <mxCell id="oEBtpxiMcQ0hFPWkXdTf-23" style="rounded=0;orthogonalLoop=1;jettySize=auto;html=1;entryX=0.689;entryY=1.023;entryDx=0;entryDy=0;entryPerimeter=0;dashed=1;" edge="1" parent="oEBtpxiMcQ0hFPWkXdTf-8" source="oEBtpxiMcQ0hFPWkXdTf-18" target="oEBtpxiMcQ0hFPWkXdTf-10">
          <mxGeometry relative="1" as="geometry" />
        </mxCell>
        <mxCell id="oEBtpxiMcQ0hFPWkXdTf-25" value="&amp;lt;&amp;lt;Include&amp;gt;&amp;gt;" style="edgeLabel;html=1;align=center;verticalAlign=middle;resizable=0;points=[];" vertex="1" connectable="0" parent="oEBtpxiMcQ0hFPWkXdTf-23">
          <mxGeometry x="0.0878" y="-1" relative="1" as="geometry">
            <mxPoint x="22" y="8" as="offset" />
          </mxGeometry>
        </mxCell>
        <mxCell id="oEBtpxiMcQ0hFPWkXdTf-32" value="Approving Vendor data" style="ellipse;whiteSpace=wrap;html=1;" vertex="1" parent="oEBtpxiMcQ0hFPWkXdTf-8">
          <mxGeometry x="292.5" y="340" width="120" height="50" as="geometry" />
        </mxCell>
        <mxCell id="oEBtpxiMcQ0hFPWkXdTf-37" value="" style="rounded=0;orthogonalLoop=1;jettySize=auto;html=1;dashed=1;" edge="1" parent="oEBtpxiMcQ0hFPWkXdTf-8" source="oEBtpxiMcQ0hFPWkXdTf-34" target="oEBtpxiMcQ0hFPWkXdTf-36">
          <mxGeometry relative="1" as="geometry" />
        </mxCell>
        <mxCell id="oEBtpxiMcQ0hFPWkXdTf-38" value="&amp;lt;&amp;lt;Extended&amp;gt;&amp;gt;" style="edgeLabel;html=1;align=center;verticalAlign=middle;resizable=0;points=[];" vertex="1" connectable="0" parent="oEBtpxiMcQ0hFPWkXdTf-37">
          <mxGeometry x="0.2475" y="1" relative="1" as="geometry">
            <mxPoint x="20" y="6" as="offset" />
          </mxGeometry>
        </mxCell>
        <mxCell id="oEBtpxiMcQ0hFPWkXdTf-34" value="Managing Temder Request" style="ellipse;whiteSpace=wrap;html=1;" vertex="1" parent="oEBtpxiMcQ0hFPWkXdTf-8">
          <mxGeometry x="210" y="400" width="120" height="60" as="geometry" />
        </mxCell>
        <mxCell id="oEBtpxiMcQ0hFPWkXdTf-36" value="Approving Tender Request" style="ellipse;whiteSpace=wrap;html=1;" vertex="1" parent="oEBtpxiMcQ0hFPWkXdTf-8">
          <mxGeometry x="10" y="440" width="105" height="60" as="geometry" />
        </mxCell>
        <mxCell id="oEBtpxiMcQ0hFPWkXdTf-39" value="View History Tender" style="ellipse;whiteSpace=wrap;html=1;" vertex="1" parent="oEBtpxiMcQ0hFPWkXdTf-8">
          <mxGeometry x="270" y="490" width="120" height="60" as="geometry" />
        </mxCell>
        <mxCell id="oEBtpxiMcQ0hFPWkXdTf-28" style="edgeStyle=orthogonalEdgeStyle;rounded=0;orthogonalLoop=1;jettySize=auto;html=1;" edge="1" parent="1" source="oEBtpxiMcQ0hFPWkXdTf-27" target="oEBtpxiMcQ0hFPWkXdTf-7">
          <mxGeometry relative="1" as="geometry" />
        </mxCell>
        <mxCell id="oEBtpxiMcQ0hFPWkXdTf-27" value="Company User" style="shape=umlActor;verticalLabelPosition=bottom;verticalAlign=top;html=1;outlineConnect=0;" vertex="1" parent="1">
          <mxGeometry x="110" y="130" width="30" height="60" as="geometry" />
        </mxCell>
        <mxCell id="oEBtpxiMcQ0hFPWkXdTf-33" style="rounded=0;orthogonalLoop=1;jettySize=auto;html=1;" edge="1" parent="1" source="oEBtpxiMcQ0hFPWkXdTf-29" target="oEBtpxiMcQ0hFPWkXdTf-32">
          <mxGeometry relative="1" as="geometry" />
        </mxCell>
        <mxCell id="oEBtpxiMcQ0hFPWkXdTf-35" style="rounded=0;orthogonalLoop=1;jettySize=auto;html=1;entryX=1;entryY=0.5;entryDx=0;entryDy=0;" edge="1" parent="1" source="oEBtpxiMcQ0hFPWkXdTf-29" target="oEBtpxiMcQ0hFPWkXdTf-34">
          <mxGeometry relative="1" as="geometry" />
        </mxCell>
        <mxCell id="oEBtpxiMcQ0hFPWkXdTf-29" value="Manager Logistic" style="shape=umlActor;verticalLabelPosition=bottom;verticalAlign=top;html=1;outlineConnect=0;" vertex="1" parent="1">
          <mxGeometry x="690" y="400" width="30" height="60" as="geometry" />
        </mxCell>
        <mxCell id="oEBtpxiMcQ0hFPWkXdTf-40" style="rounded=0;orthogonalLoop=1;jettySize=auto;html=1;entryX=0.975;entryY=0.325;entryDx=0;entryDy=0;entryPerimeter=0;" edge="1" parent="1" source="oEBtpxiMcQ0hFPWkXdTf-29" target="oEBtpxiMcQ0hFPWkXdTf-39">
          <mxGeometry relative="1" as="geometry" />
        </mxCell>
      </root>
    </mxGraphModel>
  </diagram>
</mxfile>
